<svg width="16" height="16" viewBox="0 0 16 16" fill="none" xmlns="http://www.w3.org/2000/svg">
<path d="M15.5271 14.3251L12.6496 11.4561C13.578 10.2734 14.0817 8.81281 14.0799 7.30923C14.0799 5.97017 13.6828 4.66118 12.9389 3.54779C12.1949 2.4344 11.1375 1.56662 9.90039 1.05419C8.66326 0.541752 7.30196 0.407675 5.98863 0.668913C4.6753 0.93015 3.46893 1.57497 2.52207 2.52183C1.57521 3.46869 0.930395 4.67506 0.669157 5.98839C0.407919 7.30172 0.541996 8.66302 1.05443 9.90015C1.56687 11.1373 2.43465 12.1947 3.54804 12.9386C4.66142 13.6826 5.97041 14.0796 7.30947 14.0796C8.81306 14.0815 10.2736 13.5778 11.4563 12.6494L14.3253 15.5268C14.404 15.6061 14.4976 15.6691 14.6007 15.7121C14.7038 15.755 14.8145 15.7771 14.9262 15.7771C15.0379 15.7771 15.1485 15.755 15.2516 15.7121C15.3548 15.6691 15.4484 15.6061 15.5271 15.5268C15.6064 15.4481 15.6693 15.3545 15.7123 15.2514C15.7553 15.1483 15.7774 15.0377 15.7774 14.9259C15.7774 14.8142 15.7553 14.7036 15.7123 14.6005C15.6693 14.4973 15.6064 14.4037 15.5271 14.3251ZM2.23167 7.30923C2.23167 6.30493 2.52948 5.32319 3.08743 4.48815C3.64539 3.65311 4.43843 3.00227 5.36628 2.61795C6.29413 2.23362 7.3151 2.13306 8.3001 2.32899C9.2851 2.52492 10.1899 3.00853 10.9 3.71868C11.6102 4.42882 12.0938 5.3336 12.2897 6.3186C12.4856 7.3036 12.3851 8.32457 12.0008 9.25242C11.6164 10.1803 10.9656 10.9733 10.1305 11.5313C9.29551 12.0892 8.31377 12.387 7.30947 12.387C5.96275 12.387 4.6712 11.8521 3.71892 10.8998C2.76665 9.9475 2.23167 8.65595 2.23167 7.30923Z" fill="#DDEAF3"/>
</svg>
